<?xml version="1.0" encoding="UTF-8" standalone="no"?>
<!DOCTYPE svg PUBLIC "-//W3C//DTD SVG 1.1//EN"
 "http://www.w3.org/Graphics/SVG/1.1/DTD/svg11.dtd">
<!-- Generated by graphviz version 14.1.2 (0)
 -->
<!-- Title: opcgw_architecture Pages: 1 -->
<svg width="1331pt" height="247pt"
 viewBox="0.00 0.00 1331.00 247.00" xmlns="http://www.w3.org/2000/svg" xmlns:xlink="http://www.w3.org/1999/xlink">
<g id="graph0" class="graph" transform="scale(1 1) rotate(0) translate(21.6 225.6)">
<title>opcgw_architecture</title>
<g id="clust1" class="cluster">
<title>cluster_opcgw</title>
<path fill="#f7f9fb" stroke="#ce7b3c" stroke-width="2" d="M317.55,-8C317.55,-8 1019.45,-8 1019.45,-8 1025.45,-8 1031.45,-14 1031.45,-20 1031.45,-20 1031.45,-184 1031.45,-184 1031.45,-190 1025.45,-196 1019.45,-196 1019.45,-196 317.55,-196 317.55,-196 311.55,-196 305.55,-190 305.55,-184 305.55,-184 305.55,-20 305.55,-20 305.55,-14 311.55,-8 317.55,-8"/>
<text xml:space="preserve" text-anchor="middle" x="369.8" y="-179.65" font-family="Helvetica,sans-Serif" font-weight="bold" font-size="13.00" fill="#1a3f5c">opcgw gateway</text>
</g>
<!-- chirpstack -->
<g id="node1" class="node">
<title>chirpstack</title>
<path fill="#eaf0f5" stroke="#1a3f5c" stroke-width="1.4" d="M168.3,-166.86C168.3,-166.86 12,-166.86 12,-166.86 6,-166.86 0,-160.86 0,-154.86 0,-154.86 0,-133.14 0,-133.14 0,-127.14 6,-121.14 12,-121.14 12,-121.14 168.3,-121.14 168.3,-121.14 174.3,-121.14 180.3,-127.14 180.3,-133.14 180.3,-133.14 180.3,-154.86 180.3,-154.86 180.3,-160.86 174.3,-166.86 168.3,-166.86"/>
<text xml:space="preserve" text-anchor="middle" x="90.15" y="-147.05" font-family="Helvetica,sans-Serif" font-size="11.00" fill="#1a3f5c">ChirpStack</text>
<text xml:space="preserve" text-anchor="middle" x="90.15" y="-133.55" font-family="Helvetica,sans-Serif" font-size="11.00" fill="#1a3f5c">(LoRaWAN Network Server)</text>
</g>
<!-- poller -->
<g id="node4" class="node">
<title>poller</title>
<path fill="white" stroke="#1a3f5c" stroke-width="1.4" d="M475.85,-151.86C475.85,-151.86 337.55,-151.86 337.55,-151.86 331.55,-151.86 325.55,-145.86 325.55,-139.86 325.55,-139.86 325.55,-118.14 325.55,-118.14 325.55,-112.14 331.55,-106.14 337.55,-106.14 337.55,-106.14 475.85,-106.14 475.85,-106.14 481.85,-106.14 487.85,-112.14 487.85,-118.14 487.85,-118.14 487.85,-139.86 487.85,-139.86 487.85,-145.86 481.85,-151.86 475.85,-151.86"/>
<text xml:space="preserve" text-anchor="middle" x="406.7" y="-132.05" font-family="Helvetica,sans-Serif" font-size="11.00" fill="#1a3f5c">Poller</text>
<text xml:space="preserve" text-anchor="middle" x="406.7" y="-118.55" font-family="Helvetica,sans-Serif" font-size="11.00" fill="#1a3f5c">(ChirpStack gRPC client)</text>
</g>
<!-- chirpstack&#45;&gt;poller -->
<g id="edge1" class="edge">
<title>chirpstack&#45;&gt;poller</title>
<path fill="none" stroke="#1a3f5c" stroke-width="1.3" d="M180.87,-139.72C222.98,-137.71 273.08,-135.32 315.28,-133.31"/>
<polygon fill="#1a3f5c" stroke="#1a3f5c" stroke-width="1.3" points="315.17,-136.12 323.03,-132.94 314.9,-130.53 315.17,-136.12"/>
<text xml:space="preserve" text-anchor="middle" x="252.93" y="-151.35" font-family="Helvetica,sans-Serif" font-size="9.00" fill="#1a3f5c">poll metrics</text>
<text xml:space="preserve" text-anchor="middle" x="252.93" y="-140.1" font-family="Helvetica,sans-Serif" font-size="9.00" fill="#1a3f5c">(gRPC)</text>
</g>
<!-- scada -->
<g id="node2" class="node">
<title>scada</title>
<path fill="#eaf0f5" stroke="#1a3f5c" stroke-width="1.4" d="M1276.25,-82.86C1276.25,-82.86 1179.95,-82.86 1179.95,-82.86 1173.95,-82.86 1167.95,-76.86 1167.95,-70.86 1167.95,-70.86 1167.95,-49.14 1167.95,-49.14 1167.95,-43.14 1173.95,-37.14 1179.95,-37.14 1179.95,-37.14 1276.25,-37.14 1276.25,-37.14 1282.25,-37.14 1288.25,-43.14 1288.25,-49.14 1288.25,-49.14 1288.25,-70.86 1288.25,-70.86 1288.25,-76.86 1282.25,-82.86 1276.25,-82.86"/>
<text xml:space="preserve" text-anchor="middle" x="1228.1" y="-63.05" font-family="Helvetica,sans-Serif" font-size="11.00" fill="#1a3f5c">OPC UA / SCADA</text>
<text xml:space="preserve" text-anchor="middle" x="1228.1" y="-49.55" font-family="Helvetica,sans-Serif" font-size="11.00" fill="#1a3f5c">clients</text>
</g>
<!-- opcua -->
<g id="node6" class="node">
<title>opcua</title>
<path fill="white" stroke="#1a3f5c" stroke-width="1.4" d="M999.45,-82.86C999.45,-82.86 924.15,-82.86 924.15,-82.86 918.15,-82.86 912.15,-76.86 912.15,-70.86 912.15,-70.86 912.15,-49.14 912.15,-49.14 912.15,-43.14 918.15,-37.14 924.15,-37.14 924.15,-37.14 999.45,-37.14 999.45,-37.14 1005.45,-37.14 1011.45,-43.14 1011.45,-49.14 1011.45,-49.14 1011.45,-70.86 1011.45,-70.86 1011.45,-76.86 1005.45,-82.86 999.45,-82.86"/>
<text xml:space="preserve" text-anchor="middle" x="961.8" y="-63.05" font-family="Helvetica,sans-Serif" font-size="11.00" fill="#1a3f5c">OPC UA 1.04</text>
<text xml:space="preserve" text-anchor="middle" x="961.8" y="-49.55" font-family="Helvetica,sans-Serif" font-size="11.00" fill="#1a3f5c">server</text>
</g>
<!-- scada&#45;&gt;opcua -->
<g id="edge7" class="edge">
<title>scada&#45;&gt;opcua</title>
<path fill="none" stroke="#ce7b3c" stroke-width="1.3" stroke-dasharray="5,2" d="M1167.43,-68.4C1154.45,-69.9 1140.76,-71.23 1127.95,-72 1094.01,-74.05 1085.37,-74.29 1051.45,-72 1041.8,-71.35 1031.61,-70.31 1021.7,-69.1"/>
<polygon fill="#ce7b3c" stroke="#ce7b3c" stroke-width="1.3" points="1022.16,-66.34 1013.87,-68.1 1021.45,-71.89 1022.16,-66.34"/>
<text xml:space="preserve" text-anchor="middle" x="1089.7" y="-87.58" font-family="Helvetica,sans-Serif" font-size="9.00" fill="#ce7b3c">write</text>
<text xml:space="preserve" text-anchor="middle" x="1089.7" y="-76.33" font-family="Helvetica,sans-Serif" font-size="9.00" fill="#ce7b3c">command</text>
</g>
<!-- operator -->
<g id="node3" class="node">
<title>operator</title>
<path fill="#eaf0f5" stroke="#1a3f5c" stroke-width="1.4" d="M132.3,-58.86C132.3,-58.86 48,-58.86 48,-58.86 42,-58.86 36,-52.86 36,-46.86 36,-46.86 36,-25.14 36,-25.14 36,-19.14 42,-13.14 48,-13.14 48,-13.14 132.3,-13.14 132.3,-13.14 138.3,-13.14 144.3,-19.14 144.3,-25.14 144.3,-25.14 144.3,-46.86 144.3,-46.86 144.3,-52.86 138.3,-58.86 132.3,-58.86"/>
<text xml:space="preserve" text-anchor="middle" x="90.15" y="-39.05" font-family="Helvetica,sans-Serif" font-size="11.00" fill="#1a3f5c">Operator</text>
<text xml:space="preserve" text-anchor="middle" x="90.15" y="-25.55" font-family="Helvetica,sans-Serif" font-size="11.00" fill="#1a3f5c">(web browser)</text>
</g>
<!-- web -->
<g id="node7" class="node">
<title>web</title>
<path fill="white" stroke="#1a3f5c" stroke-width="1.4" d="M466.1,-73.86C466.1,-73.86 347.3,-73.86 347.3,-73.86 341.3,-73.86 335.3,-67.86 335.3,-61.86 335.3,-61.86 335.3,-40.14 335.3,-40.14 335.3,-34.14 341.3,-28.14 347.3,-28.14 347.3,-28.14 466.1,-28.14 466.1,-28.14 472.1,-28.14 478.1,-34.14 478.1,-40.14 478.1,-40.14 478.1,-61.86 478.1,-61.86 478.1,-67.86 472.1,-73.86 466.1,-73.86"/>
<text xml:space="preserve" text-anchor="middle" x="406.7" y="-54.05" font-family="Helvetica,sans-Serif" font-size="11.00" fill="#1a3f5c">Web UI</text>
<text xml:space="preserve" text-anchor="middle" x="406.7" y="-40.55" font-family="Helvetica,sans-Serif" font-size="11.00" fill="#1a3f5c">setup · configuration</text>
</g>
<!-- operator&#45;&gt;web -->
<g id="edge5" class="edge">
<title>operator&#45;&gt;web</title>
<path fill="none" stroke="#1a3f5c" stroke-width="1.3" d="M144.86,-32.86C183.93,-31.17 238.08,-30.06 285.55,-33.5 298.41,-34.43 311.98,-35.92 325.19,-37.64"/>
<polygon fill="#1a3f5c" stroke="#1a3f5c" stroke-width="1.3" points="324.48,-40.37 332.78,-38.66 325.23,-34.82 324.48,-40.37"/>
<text xml:space="preserve" text-anchor="middle" x="252.93" y="-47.45" font-family="Helvetica,sans-Serif" font-size="9.00" fill="#1a3f5c">HTTPS /</text>
<text xml:space="preserve" text-anchor="middle" x="252.93" y="-36.2" font-family="Helvetica,sans-Serif" font-size="9.00" fill="#1a3f5c">Basic auth</text>
</g>
<!-- poller&#45;&gt;chirpstack -->
<g id="edge9" class="edge">
<title>poller&#45;&gt;chirpstack</title>
<path fill="none" stroke="#ce7b3c" stroke-width="1.3" stroke-dasharray="5,2" d="M325.01,-118.87C311.84,-117.57 298.33,-116.45 285.55,-115.75 256.59,-114.16 249.13,-112.63 220.3,-115.75 210.53,-116.81 200.41,-118.3 190.34,-120.05"/>
<polygon fill="#ce7b3c" stroke="#ce7b3c" stroke-width="1.3" points="190.02,-117.27 182.65,-121.46 191.02,-122.78 190.02,-117.27"/>
<text xml:space="preserve" text-anchor="middle" x="252.93" y="-118.45" font-family="Helvetica,sans-Serif" font-size="9.00" fill="#ce7b3c">send downlink</text>
</g>
<!-- storage -->
<g id="node5" class="node">
<title>storage</title>
<path fill="#1a3f5c" stroke="#1a3f5c" stroke-width="1.4" d="M768.4,-75.86C768.4,-75.86 633.85,-75.86 633.85,-75.86 627.85,-75.86 621.85,-69.86 621.85,-63.86 621.85,-63.86 621.85,-42.14 621.85,-42.14 621.85,-36.14 627.85,-30.14 633.85,-30.14 633.85,-30.14 768.4,-30.14 768.4,-30.14 774.4,-30.14 780.4,-36.14 780.4,-42.14 780.4,-42.14 780.4,-63.86 780.4,-63.86 780.4,-69.86 774.4,-75.86 768.4,-75.86"/>
<text xml:space="preserve" text-anchor="middle" x="701.13" y="-56.05" font-family="Helvetica,sans-Serif" font-size="11.00" fill="white">SQLite store</text>
<text xml:space="preserve" text-anchor="middle" x="701.13" y="-42.55" font-family="Helvetica,sans-Serif" font-size="11.00" fill="white">values · history · config</text>
</g>
<!-- poller&#45;&gt;storage -->
<g id="edge2" class="edge">
<title>poller&#45;&gt;storage</title>
<path fill="none" stroke="#1a3f5c" stroke-width="1.3" d="M488.38,-108.03C526.72,-98.07 572.65,-86.13 611.92,-75.93"/>
<polygon fill="#1a3f5c" stroke="#1a3f5c" stroke-width="1.3" points="612.28,-78.72 619.32,-74 610.87,-73.3 612.28,-78.72"/>
<text xml:space="preserve" text-anchor="middle" x="554.85" y="-98.25" font-family="Helvetica,sans-Serif" font-size="9.00" fill="#1a3f5c">write values</text>
</g>
<!-- storage&#45;&gt;opcua -->
<g id="edge3" class="edge">
<title>storage&#45;&gt;opcua</title>
<path fill="none" stroke="#1a3f5c" stroke-width="1.3" d="M780.79,-55.13C819.78,-56.18 866.08,-57.44 901.95,-58.41"/>
<polygon fill="#1a3f5c" stroke="#1a3f5c" stroke-width="1.3" points="901.74,-61.2 909.81,-58.62 901.89,-55.6 901.74,-61.2"/>
<text xml:space="preserve" text-anchor="middle" x="846.28" y="-60.24" font-family="Helvetica,sans-Serif" font-size="9.00" fill="#1a3f5c">read values</text>
</g>
<!-- opcua&#45;&gt;scada -->
<g id="edge4" class="edge">
<title>opcua&#45;&gt;scada</title>
<path fill="none" stroke="#1a3f5c" stroke-width="1.3" d="M1012.03,-59.18C1024.86,-59 1038.67,-58.84 1051.45,-58.75 1085.45,-58.51 1093.95,-58.54 1127.95,-58.75 1137.5,-58.81 1147.58,-58.9 1157.49,-59.01"/>
<polygon fill="#1a3f5c" stroke="#1a3f5c" stroke-width="1.3" points="1157.33,-61.81 1165.36,-59.1 1157.4,-56.21 1157.33,-61.81"/>
<text xml:space="preserve" text-anchor="middle" x="1089.7" y="-61.45" font-family="Helvetica,sans-Serif" font-size="9.00" fill="#1a3f5c">serve / subscribe</text>
</g>
<!-- opcua&#45;&gt;poller -->
<g id="edge8" class="edge">
<title>opcua&#45;&gt;poller</title>
<path fill="none" stroke="#ce7b3c" stroke-width="1.3" stroke-dasharray="5,2" d="M911.61,-69.68C898.78,-72.14 884.96,-74.73 872.15,-77 831.47,-84.22 821.56,-88.41 780.4,-92 752.44,-94.44 555.62,-90.98 527.85,-95 514.99,-96.86 501.56,-99.72 488.54,-103"/>
<polygon fill="#ce7b3c" stroke="#ce7b3c" stroke-width="1.3" points="488.08,-100.22 481.05,-104.96 489.49,-105.64 488.08,-100.22"/>
<text xml:space="preserve" text-anchor="middle" x="701.13" y="-95.67" font-family="Helvetica,sans-Serif" font-size="9.00" fill="#ce7b3c">queue command</text>
</g>
<!-- web&#45;&gt;storage -->
<g id="edge6" class="edge">
<title>web&#45;&gt;storage</title>
<path fill="none" stroke="#1a3f5c" stroke-width="1.3" d="M478.49,-51.48C518.48,-51.76 568.83,-52.1 611.43,-52.39"/>
<polygon fill="#1a3f5c" stroke="#1a3f5c" stroke-width="1.3" points="611.25,-55.19 619.27,-52.45 611.29,-49.59 611.25,-55.19"/>
<text xml:space="preserve" text-anchor="middle" x="554.85" y="-66.13" font-family="Helvetica,sans-Serif" font-size="9.00" fill="#1a3f5c">read / write</text>
<text xml:space="preserve" text-anchor="middle" x="554.85" y="-54.88" font-family="Helvetica,sans-Serif" font-size="9.00" fill="#1a3f5c">config</text>
</g>
</g>
</svg>
